<?xml version="1.0" encoding="iso-8859-1"?>
<!-- Generator: Adobe Illustrator 16.0.0, SVG Export Plug-In . SVG Version: 6.00 Build 0)  -->
<!DOCTYPE svg PUBLIC "-//W3C//DTD SVG 1.1//EN" "http://www.w3.org/Graphics/SVG/1.1/DTD/svg11.dtd">
<svg version="1.1" id="Capa_1" xmlns="http://www.w3.org/2000/svg" xmlns:xlink="http://www.w3.org/1999/xlink" x="0px" y="0px"
	 width="405.102px" height="405.103px" viewBox="0 0 405.102 405.103" style="enable-background:new 0 0 405.102 405.103;"
	 xml:space="preserve">
<g>
	<path d="M320.893,205.965c0-5.359-4.345-9.703-9.703-9.703c-0.19,0-0.932,0-1.123,0h-36.713V70.803
		C273.354,31.764,241.591,0,202.551,0S131.75,31.764,131.75,70.803v125.459H95.286c-0.234,0-1.139,0-1.374,0
		c-5.358,0-9.703,4.344-9.703,9.703c0,61.979,47.909,112.944,108.638,117.899v61.832h-47.576c-5.359,0-9.703,4.345-9.703,9.703
		s4.344,9.703,9.703,9.703h114.565c5.357,0,9.703-4.345,9.703-9.703s-4.346-9.703-9.703-9.703h-47.582v-61.832
		C272.983,318.909,320.893,267.943,320.893,205.965z M151.155,197.824h102.792v9.902c0,28.347-23.059,51.406-51.396,51.406
		s-51.396-23.062-51.396-51.406V197.824z M202.551,19.406c28.339,0,51.396,23.053,51.396,51.396v107.615H151.155V70.803
		C151.155,42.459,174.212,19.406,202.551,19.406z M104.109,215.668h28.114c3.965,35.314,33.975,62.867,70.328,62.867
		c36.353,0,66.363-27.553,70.328-62.867h28.114c-4.893,50.006-47.165,89.221-98.442,89.221
		C151.273,304.889,109,265.674,104.109,215.668z"/>
</g>
<g>
</g>
<g>
</g>
<g>
</g>
<g>
</g>
<g>
</g>
<g>
</g>
<g>
</g>
<g>
</g>
<g>
</g>
<g>
</g>
<g>
</g>
<g>
</g>
<g>
</g>
<g>
</g>
<g>
</g>
</svg>
