<?xml version="1.0" encoding="iso-8859-1"?>
<!-- Generator: Adobe Illustrator 18.0.0, SVG Export Plug-In . SVG Version: 6.00 Build 0)  -->
<!DOCTYPE svg PUBLIC "-//W3C//DTD SVG 1.1//EN" "http://www.w3.org/Graphics/SVG/1.1/DTD/svg11.dtd">
<svg version="1.1" id="Capa_1" xmlns="http://www.w3.org/2000/svg" xmlns:xlink="http://www.w3.org/1999/xlink" x="0px" y="0px"
	 viewBox="0 0 51.123 51.123" style="enable-background:new 0 0 51.123 51.123;" xml:space="preserve">
<path d="M45.123,0H6C2.691,0,0,2.691,0,6v39.123c0,3.309,2.691,6,6,6h39.123c3.309,0,6-2.691,6-6V6C51.123,2.691,48.431,0,45.123,0z
	 M49.123,45.123c0,2.206-1.794,4-4,4H6c-2.206,0-4-1.794-4-4V6c0-2.206,1.794-4,4-4h39.123c2.206,0,4,1.794,4,4V45.123z
	 M36.791,15.746l-9.815,9.815l9.815,9.815c0.391,0.391,0.391,1.023,0,1.414c-0.195,0.195-0.451,0.293-0.707,0.293
	s-0.512-0.098-0.707-0.293l-9.815-9.815l-9.815,9.815c-0.195,0.195-0.451,0.293-0.707,0.293s-0.512-0.098-0.707-0.293
	c-0.391-0.391-0.391-1.023,0-1.414l9.815-9.815l-9.815-9.815c-0.391-0.391-0.391-1.023,0-1.414s1.023-0.391,1.414,0l9.815,9.815
	l9.815-9.815c0.391-0.391,1.023-0.391,1.414,0S37.181,15.355,36.791,15.746z"/>
<g>
</g>
<g>
</g>
<g>
</g>
<g>
</g>
<g>
</g>
<g>
</g>
<g>
</g>
<g>
</g>
<g>
</g>
<g>
</g>
<g>
</g>
<g>
</g>
<g>
</g>
<g>
</g>
<g>
</g>
</svg>
