<?xml version="1.0" encoding="iso-8859-1"?>
<!-- Generator: Adobe Illustrator 18.1.1, SVG Export Plug-In . SVG Version: 6.00 Build 0)  -->
<svg version="1.1" id="Capa_1" xmlns="http://www.w3.org/2000/svg" xmlns:xlink="http://www.w3.org/1999/xlink" x="0px" y="0px"
	 viewBox="0 0 432.276 432.276" style="enable-background:new 0 0 432.276 432.276;" xml:space="preserve">
<g>
	<path style="fill:#010002;" d="M395.479,236.678c-4.495,0-8.129,3.633-8.129,8.129c0,94.405-76.799,171.212-171.212,171.212
		c-94.405,0-171.212-76.799-171.212-171.212c0-91.658,72.466-166.506,163.084-170.798v48.788c0,2.674,1.309,5.17,3.512,6.69
		c1.374,0.951,2.991,1.439,4.617,1.439c0.967,0,1.943-0.171,2.878-0.52l151.777-57.331c3.162-1.195,5.251-4.227,5.251-7.608
		s-2.097-6.413-5.251-7.608L219.015,0.527c-2.504-0.943-5.308-0.61-7.495,0.919c-2.203,1.52-3.512,4.016-3.512,6.69v49.414
		c-99.608,4.276-179.341,86.618-179.341,187.258c0,103.371,84.098,187.469,187.469,187.469s187.469-84.098,187.469-187.469
		C403.607,240.311,399.974,236.678,395.479,236.678z M224.275,19.897l120.644,45.569l-120.644,45.569V19.897z"/>
</g>
<g>
</g>
<g>
</g>
<g>
</g>
<g>
</g>
<g>
</g>
<g>
</g>
<g>
</g>
<g>
</g>
<g>
</g>
<g>
</g>
<g>
</g>
<g>
</g>
<g>
</g>
<g>
</g>
<g>
</g>
</svg>
